<svg width="96" height="48" viewBox="0 0 96 48" fill="none" xmlns="http://www.w3.org/2000/svg">
<path fill-rule="evenodd" clip-rule="evenodd" d="M32.0744 34.2652V29.986L18.6914 29.753L18.5895 35.5999L25.4127 35.7188L25.3357 40.1458C23.5813 41.3557 21.4431 41.9383 18.9206 41.8944C17.5398 41.8703 16.2899 41.6066 15.1697 41.1015C14.0471 40.5969 13.0766 39.8971 12.2548 39.0009C11.4345 38.1059 10.8061 37.0591 10.3725 35.8611C9.93757 34.6639 9.73378 33.36 9.75853 31.9496L9.76013 31.8623C9.78327 30.5406 10.0312 29.3034 10.5074 28.1508C10.9817 26.9987 11.6306 25.9967 12.453 25.1437C13.275 24.2907 14.226 23.6171 15.3066 23.1217C16.3864 22.6267 17.5435 22.3896 18.776 22.4111C19.6569 22.4261 20.4616 22.5134 21.1939 22.6728C21.9242 22.8328 22.6028 23.0487 23.2288 23.3237C23.8552 23.5988 24.459 23.9319 25.0389 24.3224C25.62 24.7143 26.198 25.1643 26.7775 25.6728L31.137 20.6032C30.357 19.916 29.5451 19.3008 28.7027 18.7579C27.8609 18.2155 26.96 17.76 25.9977 17.3915C25.0357 17.0231 23.9903 16.7344 22.8642 16.5233C21.7376 16.3137 20.4843 16.1962 19.1057 16.172C16.7569 16.1307 14.5929 16.5117 12.6121 17.3124C10.6313 18.1132 8.90859 19.2266 7.44613 20.6522C5.98235 22.0775 4.83067 23.7435 3.98975 25.649C3.14855 27.5543 2.70953 29.6059 2.6711 31.8038L2.66965 31.8926C2.62977 34.1779 2.98959 36.2956 3.74739 38.2434C4.5065 40.1913 5.58511 41.8815 6.98426 43.3131C8.38194 44.7448 10.0664 45.8733 12.0325 46.6988C13.9995 47.5251 16.1854 48 18.593 48C23.6392 48 26.6958 46.6178 26.6958 46.6178L32.0744 34.2652Z" fill="white"/>
<path fill-rule="evenodd" clip-rule="evenodd" d="M56.3879 40.5725L46.4725 17.3018H40.3277L27.3466 47.766H34.1402L36.9099 40.9816H49.7182L52.4877 47.766H56.3879V40.5725ZM39.2892 35.1056L43.3136 25.2967L47.3376 35.1056H39.2892Z" fill="white"/>
<path fill-rule="evenodd" clip-rule="evenodd" d="M60.65 47.1611C60.65 47.1611 61.1855 46.5874 61.78 46.5673L62.573 46.3099C62.7314 45.7756 63.2467 45.9733 63.2467 45.9733C63.5248 45.9934 63.6039 45.5769 63.6039 45.5769C63.6438 44.6669 63.8679 42.4091 63.8679 42.4091C63.7848 41.8111 63.6189 41.5719 63.6189 41.5719C62.9464 40.9463 62.9092 39.226 62.9092 39.226C62.486 39.226 62.0899 38.9135 62.0899 38.9135C61.9424 38.5724 62.0899 37.9382 62.0899 37.9382C61.8228 37.8824 61.6011 37.7165 61.6011 37.7165C61.6011 37.7165 61.0063 37.2425 60.5909 36.8465C60.5909 36.8465 61.5514 34.478 61.361 33.6724C61.3116 33.4608 61.1399 33.3625 61.1399 33.3625C61.2509 32.6995 61.0279 30.7953 61.0279 30.7953C60.1111 23.8183 62.4028 23.3283 62.4028 23.3283C62.4174 22.8698 62.4945 22.3742 62.5785 21.7233C62.6624 21.0734 62.0237 20.7136 62.0237 20.7136C61.219 20.1692 61.7238 19.7601 61.7238 19.7601C61.9012 19.6105 61.9148 19.3384 61.9148 19.3384C61.9692 19.0791 62.1606 19.2153 62.1606 19.2153C62.0107 18.8613 62.2833 18.7934 62.2833 18.7934C62.6788 18.7383 62.7194 18.5204 62.7194 18.5204C62.6651 18.0441 63.0471 18.1528 63.0471 18.1528C63.8656 18.2345 63.9749 17.9624 63.9749 17.9624C64.3174 17.5729 64.6698 17.3889 64.9398 17.3026H57.3658V47.766H60.0283C60.0104 47.5923 60.0671 47.2854 60.65 47.1611Z" fill="white"/>
<path fill-rule="evenodd" clip-rule="evenodd" d="M86.7548 17.3017V36.142L72.3993 17.3017H66.7144C67.1493 17.4824 67.6643 17.8365 68.2217 18.5129C68.2217 18.5129 69.1135 19.4827 68.7172 20.6312C68.7172 20.6312 68.6426 21.126 68.818 21.3639L68.8175 21.3659C68.8687 21.3445 68.923 21.3445 68.9836 21.3832C69.0952 21.4552 69.163 21.5303 69.1032 21.6917C69.4234 21.8655 70.7269 22.7296 69.9151 24.8905C69.9151 24.8905 69.9128 24.639 69.8919 24.3613C69.4004 25.5731 69.6844 26.6067 69.6844 26.6067C69.6844 26.6067 69.5162 26.419 69.3751 26.178C69.2428 26.9016 69.2473 27.0603 69.4296 27.6014C69.4296 27.6014 68.7693 27.2755 68.6952 27.0109C68.6952 27.0109 68.7378 27.2969 68.7693 27.4445C68.7693 27.4445 67.9531 26.8907 68.0278 25.9489C68.0998 25.035 69.2242 22.975 68.7095 22.1378C68.6421 22.1597 68.5802 22.1571 68.5307 22.1275C68.453 22.0801 68.4113 22.0333 68.4083 21.9687C68.3134 22.1062 68.1581 22.4127 67.9044 23.0463C67.7148 23.5173 66.7646 24.5158 65.8394 23.8383C64.6855 22.9927 65.8821 24.511 65.8821 24.511C65.8821 24.511 67.0713 26.3332 67.0123 28.7677C67.0123 28.7677 67.4089 30.1142 67.1707 30.906C67.1707 30.906 67.0123 31.6586 67.2896 32.7472C67.2896 32.7472 67.7062 33.7569 67.3688 33.9948C67.3688 33.9948 67.3888 35.682 67.0317 37.0258C67.0317 37.0258 66.7343 38.4891 66.7741 39.0233C66.7741 39.0233 66.8335 39.6177 66.5362 39.5579C66.5362 39.5579 66.1596 39.6768 65.8423 39.4989C65.8423 39.4989 65.7034 40.8446 66.0404 41.6364C66.0404 41.6364 66.3976 42.9834 66.2988 44.2895C66.2988 44.2895 65.9815 46.4675 66.417 46.8437C66.417 46.8437 66.7343 46.8636 66.8532 47.5561C66.8532 47.5561 66.8789 47.6409 66.9051 47.7653H72.996V28.5367L87.6631 47.7653H93.3329V17.3017H86.7548Z" fill="white"/>
<path fill-rule="evenodd" clip-rule="evenodd" d="M61.1547 11.8946L60.3169 13.4218H61.9924L61.1547 11.8946Z" fill="#ED1C24"/>
<path fill-rule="evenodd" clip-rule="evenodd" d="M66.3989 5.0156C66.3989 2.12063 64.0491 0.000163078 61.1501 0.000163078V0.0104841C58.2536 0.0125192 55.9059 2.1324 55.9059 5.02592C55.9059 8.79121 60.6418 11.9321 61.1539 11.9321V11.9212C61.6811 11.9102 66.3989 8.77376 66.3989 5.0156Z" fill="#ED1C24"/>
</svg>
